# xmcd
#
# Track frame offsets:
#	150
#	14645
#	26994
#	37210
#	48921
#	63273
#	81407
#	97744
#	107316
#	126720
#	137825
#	147509
#	177219
#
# Disc length: 2385 seconds
# Revision: 0
# Processed by: cddbd v1.5.2PL0 Copyright (c) Steve Scherf et al.
# Submitted via: dBpowerAMP V12.0
#
DISCID=bc094f0d
DTITLE=The Fisk Jubilee Singers - The Gold And The Blue Album
DYEAR=2007
DGENRE=Gospel
TTITLE0=I Couldn't Hear Nobody Pray
TTITLE1=O The Rocks And The Mountains
TTITLE2=Rockin' Jerusalem
TTITLE3=When I Was Sinkin' Down
TTITLE4=You May Bury Me In The East
TTITLE5=He Arose
TTITLE6=The Angels Bowed Down
TTITLE7=Great Camp Meeting
TTITLE8=Were You There
TTITLE9=Done Made My Vow To The Lord
TTITLE10=I'm Rolling Through An Unfriendly World
TTITLE11=Lord I'm Out Hear On Your Word
TTITLE12=DATA
EXTD=
EXTT0=
EXTT1=
EXTT2=
EXTT3=
EXTT4=
EXTT5=
EXTT6=
EXTT7=
EXTT8=
EXTT9=
EXTT10=
EXTT11=
EXTT12=
PLAYORDER=
